<?xml version="1.0" encoding="UTF-8"?>
<svg id="Layer_1" data-name="Layer 1" xmlns="http://www.w3.org/2000/svg" viewBox="0 0 560 560">
  <defs>
    <style>
      .cls-1 {
        fill: #f17aa9;
      }
    </style>
  </defs>
  <rect x="265.53" y="90.34" width="28.94" height="379.32" rx="5" ry="5"/>
  <path d="M322.65,130.28v299.43c0,4.41,5.29,6.66,8.47,3.6l155.37-149.72c2.04-1.97,2.04-5.23,0-7.2l-155.37-149.72c-3.18-3.06-8.47-.81-8.47,3.6ZM360.07,194.78l84.71,81.62c2.04,1.97,2.04,5.23,0,7.2l-84.71,81.62c-3.18,3.06-8.47.81-8.47-3.6v-163.24c0-4.41,5.29-6.66,8.47-3.6Z"/>
  <path d="M73.51,283.6l155.37,149.72c3.18,3.06,8.47.81,8.47-3.6V130.28c0-4.41-5.29-6.66-8.47-3.6l-155.37,149.72c-2.04,1.97-2.04,5.23,0,7.2ZM199.93,365.22l-84.71-81.62c-2.04-1.97-2.04-5.23,0-7.2l84.71-81.62c3.18-3.06,8.47-.81,8.47,3.6v163.24c0,4.41-5.29,6.66-8.47,3.6Z"/>
  <path class="cls-1" d="M402.14,364.88l84.35-81.28c2.04-1.97,2.04-5.23,0-7.2l-84.35-81.28v40.2l42.64,41.08c2.04,1.97,2.04,5.23,0,7.2l-42.64,41.08v40.2Z"/>
</svg>