<?xml version="1.0" encoding="UTF-8"?>
<svg id="Layer_1" data-name="Layer 1" xmlns="http://www.w3.org/2000/svg" viewBox="0 0 960 560">
  <defs>
    <style>
      .cls-1 {
        fill: #f17aa9;
      }
    </style>
  </defs>
  <g>
    <path d="M345.09,194.71h15.57c1.2,0,2.29.72,2.76,1.83l37.73,88.68c1.04,2.44,4.51,2.43,5.53-.02l37-88.65c.47-1.12,1.56-1.84,2.77-1.84h15.62c1.66,0,3,1.34,3,3v142.91c0,1.66-1.34,3-3,3h-15.81c-1.66,0-3-1.34-3-3v-89.86h-.49l-29.37,69.68c-.47,1.11-1.56,1.83-2.76,1.83h-14.2c-1.21,0-2.3-.72-2.76-1.83l-29.37-69.68h-.4v89.86c0,1.66-1.34,3-3,3h-15.81c-1.66,0-3-1.34-3-3v-142.91c0-1.66,1.34-3,3-3Z"/>
    <path d="M493.44,290.51c0-11.19.89-19.78,2.67-25.78,1.84-5.86,4.68-10.81,8.5-14.83,2.83-3.52,6.78-6.67,11.85-9.45,5-2.64,11.43-4.03,19.26-4.17,8.1.14,14.65,1.53,19.66,4.19,4.94,2.79,8.76,5.96,11.46,9.5,4.07,4.02,6.96,8.95,8.67,14.81,1.64,5.99,2.46,14.57,2.46,25.74s-.82,19.68-2.47,25.53c-1.71,5.86-4.61,10.93-8.69,15.22-1.32,1.57-2.93,3.1-4.84,4.6-1.71,1.7-3.92,3.17-6.62,4.39-5,2.93-11.55,4.46-19.65,4.6-7.83-.14-14.25-1.67-19.26-4.6-5.07-2.66-9.02-5.65-11.85-8.99-3.82-4.29-6.65-9.36-8.49-15.22-1.78-5.85-2.67-14.37-2.67-25.53ZM557.38,290.72c0-7.58-.33-13.12-.99-16.6-.66-3.35-2.01-6.29-4.06-8.81-1.52-2.39-3.76-4.27-6.73-5.64-2.84-1.43-6.14-2.15-9.9-2.15-3.5,0-6.73.72-9.7,2.15-2.84,1.37-5.15,3.24-6.93,5.63-1.78,2.53-3.07,5.47-3.86,8.81-.79,3.49-1.19,8.95-1.19,16.4s.4,12.78,1.19,16.19c.79,3.49,2.08,6.56,3.86,9.22,1.78,2.05,4.09,3.86,6.93,5.43,2.97,1.5,6.2,2.25,9.7,2.25,3.76,0,7.06-.75,9.9-2.25,2.97-1.57,5.21-3.38,6.73-5.43,2.05-2.67,3.4-5.74,4.06-9.22.66-3.42.99-8.74.99-15.99Z"/>
    <path d="M592.45,237.61h15.37c1.3,0,2.45.83,2.85,2.07l23.6,72.19h.39l23.51-72.19c.4-1.24,1.55-2.07,2.85-2.07h15.53c2.06,0,3.51,2.03,2.84,3.98l-42.75,123.99c-2.83,7.97-6.75,13.48-11.75,16.54-5.07,2.93-10.79,4.39-17.17,4.39h-6.81v-20.01h6.02c2.7,0,5.2-.75,7.5-2.25,2.3-1.57,3.92-3.89,4.84-6.96l5.63-17.8-35.27-97.87c-.7-1.96.74-4.02,2.82-4.02Z"/>
    <path class="cls-1" d="M749.52,334.23h-.4c-1.91,3.61-4.87,6.26-8.89,7.96-3.95,1.77-9.41,2.65-16.39,2.65-11.45-.14-20.27-3.27-26.46-9.39-6.52-5.99-9.77-13.65-9.77-22.98s2.83-16.3,8.49-22.16c5.66-5.99,13.95-9.05,24.88-9.19h25.53c1.66,0,3-1.34,3-3v-8.19c.13-9.37-6.88-13.92-21.04-13.65-5.14,0-9.19.55-12.15,1.64-2.48,1.04-4.53,2.65-6.16,4.83-.68.9-1.94,1.11-2.83.41l-12.14-9.58c-1.33-1.05-1.55-3.01-.44-4.29,7.75-8.93,18.65-13.28,32.71-13.03,12.89-.14,23.19,2.38,30.89,7.56,7.7,5.31,11.61,14.44,11.74,27.37v69.41c0,1.66-1.34,3-3,3h-14.58c-1.66,0-3-1.34-3-3v-6.39ZM749.52,301.67c0-1.66-1.34-3-3-3h-21.74c-12.01.27-17.95,4.53-17.81,12.78,0,3.61,1.55,6.68,4.65,9.2,2.97,2.79,7.88,4.19,14.74,4.19,8.64.14,14.74-.92,18.3-3.17,3.23-2.25,4.85-7.36,4.85-15.33v-4.67Z"/>
    <path class="cls-1" d="M805.72,194.71h10.58c2.76,0,5,2.24,5,5v11.23c0,2.76-2.24,5-5,5h-10.58c-2.76,0-5-2.24-5-5v-11.23c0-2.76,2.24-5,5-5ZM803.72,237.61h14.58c1.66,0,3,1.34,3,3v100.01c0,1.66-1.34,3-3,3h-14.58c-1.66,0-3-1.34-3-3v-100.01c0-1.66,1.34-3,3-3Z"/>
  </g>
  <g>
    <path d="M359.6,386.49l-1.95-6.7h-9.91l-2.04,6.7h-3.23l8.18-26.8h4.32l7.95,26.8h-3.32ZM352.83,362.08h-.18l-4.45,15.59h9l-4.36-15.59Z"/>
    <path d="M373.15,387.1c-1.27,0-2.39-.25-3.36-.74-.97-.49-1.78-1.17-2.43-2.04-.65-.87-1.14-1.92-1.48-3.14-.33-1.22-.5-2.58-.5-4.07s.17-2.84.5-4.07c.33-1.22.83-2.28,1.5-3.16.67-.88,1.48-1.56,2.45-2.04.97-.48,2.09-.72,3.36-.72,1.15,0,2.14.18,2.95.53s1.47.77,1.95,1.25l-1.59,1.82c-.36-.43-.82-.77-1.36-1.02s-1.18-.38-1.91-.38c-.82,0-1.52.2-2.11.59s-1.08.93-1.48,1.63c-.39.69-.69,1.51-.89,2.46-.2.95-.3,1.99-.3,3.12s.1,2.13.3,3.07c.2.93.49,1.74.89,2.42.39.68.9,1.21,1.52,1.59.62.38,1.36.57,2.2.57.76,0,1.42-.13,1.98-.4.56-.26,1.04-.64,1.43-1.12l1.36,1.93c-1.21,1.29-2.88,1.93-5,1.93Z"/>
    <path d="M388.42,387.1c-1.27,0-2.39-.25-3.36-.74-.97-.49-1.78-1.17-2.43-2.04-.65-.87-1.14-1.92-1.48-3.14-.33-1.22-.5-2.58-.5-4.07s.17-2.84.5-4.07c.33-1.22.83-2.28,1.5-3.16.67-.88,1.48-1.56,2.45-2.04.97-.48,2.09-.72,3.36-.72,1.15,0,2.14.18,2.95.53s1.47.77,1.95,1.25l-1.59,1.82c-.36-.43-.82-.77-1.36-1.02s-1.18-.38-1.91-.38c-.82,0-1.52.2-2.11.59s-1.08.93-1.48,1.63c-.39.69-.69,1.51-.89,2.46-.2.95-.3,1.99-.3,3.12s.1,2.13.3,3.07c.2.93.49,1.74.89,2.42.39.68.9,1.21,1.52,1.59.62.38,1.36.57,2.2.57.76,0,1.42-.13,1.98-.4.56-.26,1.04-.64,1.43-1.12l1.36,1.93c-1.21,1.29-2.88,1.93-5,1.93Z"/>
    <path d="M398.92,377.64c0,1.03.11,1.99.32,2.86.21.87.52,1.63.94,2.27.41.64.93,1.15,1.55,1.51s1.36.55,2.22.55c1.1,0,1.98-.28,2.65-.83.67-.55,1.19-1.22,1.55-2.01l2.27,1.1c-.55,1.14-1.36,2.09-2.43,2.86-1.08.77-2.45,1.15-4.11,1.15-2.52,0-4.47-.88-5.86-2.65-1.39-1.77-2.09-4.2-2.09-7.3,0-1.46.18-2.81.54-4.05s.88-2.3,1.56-3.18c.68-.88,1.51-1.57,2.49-2.06.98-.49,2.08-.74,3.29-.74,1.33,0,2.45.24,3.38.72.92.48,1.67,1.14,2.24,1.97.57.83.99,1.8,1.25,2.91.26,1.11.39,2.3.39,3.56v1.36h-12.13ZM408.05,375.56c0-1.89-.35-3.41-1.05-4.56s-1.8-1.72-3.29-1.72c-.88,0-1.62.22-2.21.66-.59.44-1.08.98-1.46,1.63-.38.64-.65,1.33-.82,2.06-.17.73-.25,1.38-.25,1.93h9.09Z"/>
    <path d="M425.09,370.98c-.39-.55-.9-1-1.52-1.34-.62-.34-1.37-.51-2.25-.51-.97,0-1.77.3-2.39.89-.62.59-.93,1.37-.93,2.33,0,1.01.3,1.74.91,2.2.61.45,1.51.87,2.73,1.25.61.2,1.21.45,1.82.74.61.29,1.14.65,1.61,1.08.47.43.86.94,1.16,1.53s.45,1.31.45,2.14c0,1.84-.6,3.27-1.79,4.3-1.2,1.02-2.75,1.53-4.66,1.53-1.27,0-2.44-.25-3.5-.74-1.06-.49-1.94-1.15-2.64-1.99l1.82-1.63c.51.66,1.13,1.19,1.84,1.61.71.42,1.55.62,2.52.62,1.06,0,1.92-.32,2.57-.97.65-.64.98-1.5.98-2.55,0-.61-.12-1.12-.36-1.53-.24-.42-.56-.76-.95-1.04-.39-.28-.84-.52-1.34-.72-.5-.2-1.02-.39-1.57-.57-.58-.18-1.13-.39-1.66-.64-.53-.25-1.01-.58-1.43-.98-.42-.4-.77-.89-1.02-1.46-.26-.57-.39-1.25-.39-2.06s.16-1.5.48-2.16c.32-.66.76-1.22,1.34-1.68.58-.47,1.23-.83,1.98-1.1.74-.26,1.55-.4,2.43-.4,1.27,0,2.37.21,3.29.62.92.42,1.67.95,2.25,1.61l-1.77,1.63Z"/>
    <path d="M440.27,370.98c-.39-.55-.9-1-1.52-1.34-.62-.34-1.37-.51-2.25-.51-.97,0-1.77.3-2.39.89-.62.59-.93,1.37-.93,2.33,0,1.01.3,1.74.91,2.2.61.45,1.51.87,2.73,1.25.61.2,1.21.45,1.82.74.61.29,1.14.65,1.61,1.08.47.43.86.94,1.16,1.53s.45,1.31.45,2.14c0,1.84-.6,3.27-1.79,4.3-1.2,1.02-2.75,1.53-4.66,1.53-1.27,0-2.44-.25-3.5-.74-1.06-.49-1.94-1.15-2.64-1.99l1.82-1.63c.51.66,1.13,1.19,1.84,1.61.71.42,1.55.62,2.52.62,1.06,0,1.92-.32,2.57-.97.65-.64.98-1.5.98-2.55,0-.61-.12-1.12-.36-1.53-.24-.42-.56-.76-.95-1.04-.39-.28-.84-.52-1.34-.72-.5-.2-1.02-.39-1.57-.57-.58-.18-1.13-.39-1.66-.64-.53-.25-1.01-.58-1.43-.98-.42-.4-.77-.89-1.02-1.46-.26-.57-.39-1.25-.39-2.06s.16-1.5.48-2.16c.32-.66.76-1.22,1.34-1.68.58-.47,1.23-.83,1.98-1.1.74-.26,1.55-.4,2.43-.4,1.27,0,2.37.21,3.29.62.92.42,1.67.95,2.25,1.61l-1.77,1.63Z"/>
    <path d="M455.72,386.49v-26.8h3.18v26.8h-3.18Z"/>
    <path d="M477.63,386.49v-12.11c0-.58-.04-1.17-.11-1.76-.08-.59-.24-1.13-.5-1.63-.26-.49-.62-.9-1.09-1.21-.47-.31-1.08-.47-1.84-.47s-1.43.17-2.02.51-1.09.81-1.5,1.4c-.41.59-.73,1.27-.95,2.04-.23.77-.34,1.57-.34,2.4v10.83h-3v-14.04c0-.4,0-.84-.02-1.31-.02-.47-.03-.92-.04-1.36-.02-.44-.03-.84-.05-1.21-.02-.37-.04-.65-.07-.85h2.91c.06.48.11,1.06.14,1.74s.05,1.32.05,1.93h.09c.42-1.26,1.12-2.29,2.09-3.08.97-.79,2.18-1.19,3.64-1.19,1.21,0,2.19.21,2.93.64.74.43,1.31.99,1.7,1.68s.66,1.48.8,2.35c.14.87.2,1.73.2,2.59v12.11h-3Z"/>
    <path d="M493.85,387.1c-1.27,0-2.39-.25-3.36-.74s-1.78-1.17-2.43-2.04c-.65-.87-1.14-1.92-1.48-3.14-.33-1.22-.5-2.58-.5-4.07s.17-2.84.5-4.07c.33-1.22.83-2.28,1.5-3.16.67-.88,1.48-1.56,2.45-2.04.97-.48,2.09-.72,3.36-.72,1.15,0,2.14.18,2.95.53.82.35,1.47.77,1.96,1.25l-1.59,1.82c-.36-.43-.82-.77-1.36-1.02-.55-.25-1.18-.38-1.91-.38-.82,0-1.52.2-2.11.59s-1.08.93-1.48,1.63c-.39.69-.69,1.51-.89,2.46-.2.95-.29,1.99-.29,3.12s.1,2.13.29,3.07c.2.93.49,1.74.89,2.42.39.68.9,1.21,1.52,1.59.62.38,1.36.57,2.2.57.76,0,1.42-.13,1.98-.4s1.04-.64,1.43-1.12l1.36,1.93c-1.21,1.29-2.88,1.93-5,1.93Z"/>
    <path d="M502.71,386.49v-28.61h3v28.61h-3Z"/>
    <path d="M515.53,367.72v12.11c0,.58.04,1.17.11,1.76.08.59.24,1.14.5,1.63.26.49.61.9,1.07,1.21.46.32,1.08.47,1.86.47s1.43-.17,2.02-.51,1.09-.81,1.5-1.4.73-1.27.95-2.04c.23-.77.34-1.57.34-2.4v-10.83h3v14.04c0,.4,0,.84.02,1.31.01.47.03.92.05,1.36.01.44.03.85.04,1.23.01.38.04.66.07.83h-2.91c-.06-.48-.11-1.06-.14-1.74s-.05-1.32-.05-1.93h-.09c-.42,1.26-1.12,2.29-2.09,3.08-.97.79-2.18,1.19-3.64,1.19-1.21,0-2.19-.21-2.93-.64s-1.31-.99-1.7-1.68c-.39-.69-.66-1.47-.79-2.33-.14-.86-.21-1.73-.21-2.61v-12.11h3Z"/>
    <path d="M542.66,370.98c-.39-.55-.9-1-1.52-1.34-.62-.34-1.37-.51-2.25-.51-.97,0-1.76.3-2.39.89s-.93,1.37-.93,2.33c0,1.01.3,1.74.91,2.2.61.45,1.51.87,2.73,1.25.61.2,1.21.45,1.82.74.61.29,1.14.65,1.61,1.08.47.43.86.94,1.16,1.53s.46,1.31.46,2.14c0,1.84-.6,3.27-1.8,4.3-1.2,1.02-2.75,1.53-4.66,1.53-1.27,0-2.44-.25-3.5-.74s-1.94-1.15-2.64-1.99l1.82-1.63c.52.66,1.13,1.19,1.84,1.61.71.42,1.55.62,2.52.62,1.06,0,1.92-.32,2.57-.97s.98-1.5.98-2.55c0-.61-.12-1.12-.36-1.53-.24-.42-.56-.76-.95-1.04s-.84-.52-1.34-.72c-.5-.2-1.02-.39-1.57-.57-.58-.18-1.13-.39-1.66-.64-.53-.25-1.01-.58-1.43-.98-.42-.4-.77-.89-1.02-1.46-.26-.57-.39-1.25-.39-2.06s.16-1.5.48-2.16c.32-.66.76-1.22,1.34-1.68.58-.47,1.23-.83,1.98-1.1.74-.26,1.55-.4,2.43-.4,1.27,0,2.37.21,3.29.62.92.42,1.67.95,2.25,1.61l-1.77,1.63Z"/>
    <path d="M553.02,361.97c0,.53-.2.96-.59,1.31-.39.34-.86.51-1.41.51-.58,0-1.05-.17-1.43-.51s-.57-.78-.57-1.31.19-.93.57-1.29c.38-.35.86-.53,1.43-.53s1.05.18,1.43.53c.38.35.57.78.57,1.29ZM549.52,386.49v-18.77h3v18.77h-3Z"/>
    <path d="M573.88,377.15c0,1.49-.18,2.84-.54,4.05-.36,1.21-.88,2.26-1.55,3.14-.67.88-1.49,1.56-2.48,2.04-.98.48-2.08.72-3.29.72s-2.3-.24-3.27-.72c-.97-.48-1.79-1.16-2.48-2.04-.68-.88-1.2-1.93-1.57-3.14-.36-1.21-.55-2.56-.55-4.05s.17-2.85.52-4.09.86-2.3,1.52-3.18c.67-.88,1.49-1.56,2.48-2.04.98-.48,2.1-.72,3.34-.72s2.31.24,3.29.72c.98.48,1.81,1.16,2.48,2.04.67.88,1.18,1.94,1.55,3.18.36,1.24.54,2.6.54,4.09ZM570.79,377.09c0-1.11-.1-2.14-.29-3.1-.2-.96-.49-1.78-.89-2.47-.39-.69-.89-1.24-1.48-1.64-.59-.4-1.29-.6-2.11-.6s-1.53.2-2.14.6c-.61.4-1.1.95-1.48,1.64-.38.69-.67,1.52-.86,2.47-.2.96-.29,1.99-.29,3.1s.1,2.13.29,3.06.48,1.75.86,2.45.87,1.25,1.48,1.64c.61.39,1.32.58,2.14.58s1.53-.2,2.14-.58c.61-.39,1.1-.94,1.48-1.64.38-.71.67-1.52.86-2.45.2-.93.29-1.95.29-3.06Z"/>
    <path d="M591.06,386.49v-12.11c0-.58-.04-1.17-.11-1.76-.08-.59-.24-1.13-.5-1.63-.26-.49-.62-.9-1.09-1.21-.47-.31-1.08-.47-1.84-.47s-1.43.17-2.02.51-1.09.81-1.5,1.4c-.41.59-.73,1.27-.95,2.04-.23.77-.34,1.57-.34,2.4v10.83h-3v-14.04c0-.4,0-.84-.02-1.31-.02-.47-.03-.92-.04-1.36-.02-.44-.03-.84-.05-1.21-.02-.37-.04-.65-.07-.85h2.91c.06.48.11,1.06.14,1.74s.05,1.32.05,1.93h.09c.42-1.26,1.12-2.29,2.09-3.08.97-.79,2.18-1.19,3.64-1.19,1.21,0,2.19.21,2.93.64.74.43,1.31.99,1.7,1.68s.66,1.48.8,2.35c.14.87.2,1.73.2,2.59v12.11h-3Z"/>
  </g>
  <rect x="168.26" y="139.44" width="21.45" height="281.12" rx="5" ry="5"/>
  <path d="M210.6,172.59v215.82c0,4.41,5.29,6.66,8.47,3.6l111.98-107.91c2.04-1.97,2.04-5.23,0-7.2l-111.98-107.91c-3.18-3.06-8.47-.81-8.47,3.6ZM240.52,219.45l59.62,57.45c2.04,1.97,2.04,5.23,0,7.2l-59.62,57.45c-3.18,3.06-8.47.81-8.47-3.6v-114.89c0-4.41,5.29-6.66,8.47-3.6Z"/>
  <path d="M26.93,284.1l111.98,107.91c3.18,3.06,8.47.81,8.47-3.6v-215.82c0-4.41-5.29-6.66-8.47-3.6l-111.98,107.91c-2.04,1.97-2.04,5.23,0,7.2ZM117.46,341.55l-59.62-57.45c-2.04-1.97-2.04-5.23,0-7.2l59.62-57.45c3.18-3.06,8.47-.81,8.47,3.6v114.89c0,4.41-5.29,6.66-8.47,3.6Z"/>
  <path class="cls-1" d="M269.51,343.41l61.54-59.31c2.04-1.97,2.04-5.23,0-7.2l-61.54-59.31v29.79l30.63,29.51c2.04,1.97,2.04,5.23,0,7.2l-30.63,29.51v29.79Z"/>
</svg>