<?xml version="1.0" encoding="UTF-8"?>
<svg id="Layer_1" data-name="Layer 1" xmlns="http://www.w3.org/2000/svg" viewBox="0 0 960 560">
  <defs>
    <style>
      .cls-1 {
        fill: #f17aa9;
      }
    </style>
  </defs>
  <g>
    <path d="M372.09,194.71h15.57c1.2,0,2.29.72,2.76,1.83l40.52,95.23,39.74-95.22c.47-1.12,1.56-1.84,2.77-1.84h15.62c1.66,0,3,1.34,3,3v142.91c0,1.66-1.34,3-3,3h-15.81c-1.66,0-3-1.34-3-3v-89.86h-.49l-29.37,69.68c-.47,1.11-1.56,1.83-2.76,1.83h-14.2c-1.21,0-2.3-.72-2.76-1.83l-29.37-69.68h-.4v89.86c0,1.66-1.34,3-3,3h-15.81c-1.66,0-3-1.34-3-3v-142.91c0-1.66,1.34-3,3-3Z"/>
    <path d="M520.44,290.51c0-11.19.89-19.78,2.67-25.78,1.84-5.86,4.68-10.81,8.5-14.83,2.83-3.52,6.78-6.67,11.85-9.45,5-2.64,11.43-4.03,19.26-4.17,8.1.14,14.65,1.53,19.66,4.19,4.94,2.79,8.76,5.96,11.46,9.5,4.07,4.02,6.96,8.95,8.67,14.81,1.64,5.99,2.46,14.57,2.46,25.74s-.82,19.68-2.47,25.53c-1.71,5.86-4.61,10.93-8.69,15.22-1.32,1.57-2.93,3.1-4.84,4.6-1.71,1.7-3.92,3.17-6.62,4.39-5,2.93-11.55,4.46-19.65,4.6-7.83-.14-14.25-1.67-19.26-4.6-5.07-2.66-9.02-5.65-11.85-8.99-3.82-4.29-6.65-9.36-8.49-15.22-1.78-5.85-2.67-14.37-2.67-25.53ZM584.38,290.72c0-7.58-.33-13.12-.99-16.6-.66-3.35-2.01-6.29-4.06-8.81-1.52-2.39-3.76-4.27-6.73-5.64-2.84-1.43-6.14-2.15-9.9-2.15-3.5,0-6.73.72-9.7,2.15-2.84,1.37-5.15,3.24-6.93,5.63-1.78,2.53-3.07,5.47-3.86,8.81-.79,3.49-1.19,8.95-1.19,16.4s.4,12.78,1.19,16.19c.79,3.49,2.08,6.56,3.86,9.22,1.78,2.05,4.09,3.86,6.93,5.43,2.97,1.5,6.2,2.25,9.7,2.25,3.76,0,7.06-.75,9.9-2.25,2.97-1.57,5.21-3.38,6.73-5.43,2.05-2.67,3.4-5.74,4.06-9.22.66-3.42.99-8.74.99-15.99Z"/>
    <path d="M619.45,237.61h15.37c1.3,0,2.45.83,2.85,2.07l23.6,72.19h.39l23.51-72.19c.4-1.24,1.55-2.07,2.85-2.07h15.53c2.06,0,3.51,2.03,2.84,3.98l-42.75,123.99c-2.83,7.97-6.75,13.48-11.75,16.54-5.07,2.93-10.79,4.39-17.17,4.39h-3.81c-1.66,0-3-1.34-3-3v-14.01c0-1.66,1.34-3,3-3h3.02c2.7,0,5.2-.75,7.5-2.25,2.3-1.57,3.92-3.89,4.84-6.96l5.63-17.8-35.27-97.87c-.7-1.96.74-4.02,2.82-4.02Z"/>
    <path class="cls-1" d="M776.52,334.23h-.4c-1.91,3.61-4.87,6.26-8.89,7.96-3.95,1.77-9.41,2.65-16.39,2.65-11.45-.14-20.27-3.27-26.46-9.39-6.52-5.99-9.77-13.65-9.77-22.98s2.83-16.3,8.49-22.16c5.66-5.99,13.95-9.05,24.88-9.19h28.53v-11.19c.13-9.37-6.88-13.92-21.04-13.65-5.14,0-9.19.55-12.15,1.64-2.2.92-4.07,2.3-5.6,4.12-1.06,1.26-2.9,1.51-4.2.48l-11.33-8.94c-1.33-1.05-1.55-3.01-.44-4.29,7.75-8.93,18.65-13.28,32.71-13.03,12.89-.14,23.19,2.38,30.89,7.56,7.7,5.31,11.61,14.44,11.74,27.37v69.41c0,1.66-1.34,3-3,3h-14.58c-1.66,0-3-1.34-3-3v-6.39ZM776.52,301.67c0-1.66-1.34-3-3-3h-21.74c-12.01.27-17.95,4.53-17.81,12.78,0,3.61,1.55,6.68,4.65,9.2,2.97,2.79,7.88,4.19,14.74,4.19,8.64.14,14.74-.92,18.3-3.17,3.23-2.25,4.85-7.36,4.85-15.33v-4.67Z"/>
    <path class="cls-1" d="M831.72,194.71h12.58c2.21,0,4,1.79,4,4v13.23c0,2.21-1.79,4-4,4h-12.58c-2.21,0-4-1.79-4-4v-13.23c0-2.21,1.79-4,4-4ZM830.72,237.61h14.58c1.66,0,3,1.34,3,3v100.01c0,1.66-1.34,3-3,3h-14.58c-1.66,0-3-1.34-3-3v-100.01c0-1.66,1.34-3,3-3Z"/>
  </g>
  <g>
    <rect x="195.26" y="139.94" width="21.45" height="281.12" rx="5" ry="5"/>
    <path d="M237.6,172.59v215.82c0,4.41,5.29,6.66,8.47,3.6l111.98-107.91c2.04-1.97,2.04-5.23,0-7.2l-111.98-107.91c-3.18-3.06-8.47-.81-8.47,3.6ZM267.52,219.45l59.62,57.45c2.04,1.97,2.04,5.23,0,7.2l-59.62,57.45c-3.18,3.06-8.47.81-8.47-3.6v-114.89c0-4.41,5.29-6.66,8.47-3.6Z"/>
    <path d="M53.93,284.1l111.98,107.91c3.18,3.06,8.47.81,8.47-3.6v-215.82c0-4.41-5.29-6.66-8.47-3.6l-111.98,107.91c-2.04,1.97-2.04,5.23,0,7.2ZM144.46,341.55l-59.62-57.45c-2.04-1.97-2.04-5.23,0-7.2l59.62-57.45c3.18-3.06,8.47-.81,8.47,3.6v114.89c0,4.41-5.29,6.66-8.47,3.6Z"/>
    <path class="cls-1" d="M296.51,343.41l61.54-59.31c2.04-1.97,2.04-5.23,0-7.2l-61.54-59.31v29.79l30.63,29.51c2.04,1.97,2.04,5.23,0,7.2l-30.63,29.51v29.79Z"/>
  </g>
</svg>